<svg width="405" height="96" viewBox="0 0 405 96" fill="none" xmlns="http://www.w3.org/2000/svg">
<path d="M228.32 92.3555L204.531 82.1836L192.514 32.3496C192.131 30.7637 192.281 29.4375 192.965 28.3711C193.676 27.3047 194.756 26.7715 196.205 26.7715C197.326 26.7715 198.365 27.1133 199.322 27.7969C200.307 28.4531 201.154 29.3008 201.865 30.3398C202.303 30.0664 202.768 29.8613 203.26 29.7246C203.752 29.5605 204.258 29.4785 204.777 29.4785C205.98 29.4785 207.143 29.8477 208.264 30.5859C209.412 31.3242 210.396 32.2949 211.217 33.498C212.037 32.8965 213.021 32.5957 214.17 32.5957C215.537 32.5957 216.863 32.9922 218.148 33.7852C219.434 34.5508 220.555 35.5762 221.512 36.8613C222.934 34.291 225.203 33.0059 228.32 33.0059C231.438 33.0059 233.707 34.291 235.129 36.8613C236.086 35.5762 237.207 34.5508 238.492 33.7852C239.805 32.9922 241.131 32.5957 242.471 32.5957C243.619 32.5957 244.604 32.8965 245.424 33.498C246.244 32.2949 247.229 31.3242 248.377 30.5859C249.525 29.8477 250.688 29.4785 251.863 29.4785C252.41 29.4785 252.916 29.5605 253.381 29.7246C253.873 29.8613 254.338 30.0664 254.775 30.3398C255.486 29.3008 256.334 28.4531 257.318 27.7969C258.303 27.1133 259.342 26.7715 260.436 26.7715C261.885 26.7715 262.951 27.3047 263.635 28.3711C264.346 29.4375 264.51 30.7637 264.127 32.3496L252.109 82.1836L228.32 92.3555ZM216.016 82.7168L209.535 39.5684C209.316 38.0371 208.811 36.6562 208.018 35.4258C207.252 34.1953 206.227 33.5801 204.941 33.5801C204.312 33.5801 203.82 33.8125 203.465 34.2773C203.137 34.7148 203.027 35.248 203.137 35.877L210.807 80.2969L216.016 82.7168ZM228.279 87.9258L230.576 86.9414L232.709 43.916C232.818 41.7285 232.49 40.0469 231.725 38.8711C230.986 37.6953 229.852 37.1074 228.32 37.1074C226.816 37.1074 225.682 37.6953 224.916 38.8711C224.15 40.0469 223.822 41.7285 223.932 43.916L226.064 86.9414L228.279 87.9258ZM240.625 82.7168L245.834 80.2969L253.504 35.877C253.613 35.248 253.49 34.7148 253.135 34.2773C252.807 33.8125 252.328 33.5801 251.699 33.5801C250.414 33.5801 249.375 34.1953 248.582 35.4258C247.816 36.6562 247.324 38.0371 247.105 39.5684L240.625 82.7168ZM213.965 35.6309C212.789 35.084 211.9 34.332 211.299 33.375C210.697 32.3906 210.396 31.3926 210.396 30.3809C210.396 29.3691 210.697 28.4121 211.299 27.5098C211.928 26.6074 212.871 25.9375 214.129 25.5C214.949 24.0508 216.221 23.3262 217.943 23.3262C218.873 23.3262 219.816 23.5996 220.773 24.1465C221.676 23.7363 222.633 23.5312 223.645 23.5312C225.285 23.5312 226.639 24.0781 227.705 25.1719C228.799 26.2656 229.346 27.5508 229.346 29.0273C229.346 30.75 228.58 32.3633 227.049 33.8672L227.418 32.3496C227.527 32.5684 227.609 32.8691 227.664 33.252C227.746 33.6074 227.801 33.9766 227.828 34.3594L225.039 34.4824C224.984 33.9629 224.875 33.5391 224.711 33.2109C224.547 32.8555 224.41 32.6094 224.301 32.4727C225.777 31.2969 226.516 30.1348 226.516 28.9863C226.516 28.248 226.242 27.6465 225.695 27.1816C225.148 26.7168 224.465 26.4844 223.645 26.4844C223.18 26.4844 222.674 26.5801 222.127 26.7715C221.607 26.9355 221.074 27.209 220.527 27.5918C220.254 27.0996 219.939 26.7578 219.584 26.5664C219.229 26.3477 218.859 26.2383 218.477 26.2383C217.957 26.2383 217.479 26.4023 217.041 26.7305C216.631 27.0586 216.398 27.4551 216.344 27.9199C215.305 28.0293 214.525 28.3437 214.006 28.8633C213.514 29.3828 213.268 29.957 213.268 30.5859C213.268 31.1055 213.445 31.6113 213.801 32.1035C214.184 32.5684 214.744 32.9375 215.482 33.2109L213.965 35.6309ZM228.936 29.8477L227.049 27.0176C227.65 26.0605 228.457 25.3086 229.469 24.7617C230.48 24.1875 231.588 23.9004 232.791 23.9004C233.201 23.9004 233.516 23.9277 233.734 23.9824L234.021 26.9766C233.611 26.8398 233.201 26.7715 232.791 26.7715C231.861 26.7715 231.041 27.0723 230.33 27.6738C229.619 28.248 229.154 28.9727 228.936 29.8477ZM223.029 25.418C222.455 24.543 222.168 23.5996 222.168 22.5879C222.168 21.166 222.66 19.9629 223.645 18.9785C224.656 17.9941 225.873 17.502 227.295 17.502C228.771 17.502 230.029 18.0625 231.068 19.1836L229.182 21.8086C228.854 20.9609 228.225 20.5371 227.295 20.5371C226.693 20.5371 226.188 20.7422 225.777 21.1523C225.395 21.5625 225.203 22.041 225.203 22.5879C225.203 23.4082 225.531 24.0098 226.188 24.3926L223.029 25.418ZM238.779 34.1953C238.424 33.6484 238.15 33.0469 237.959 32.3906C237.768 31.7344 237.672 31.0508 237.672 30.3398C237.672 28.3164 238.342 26.5938 239.682 25.1719C241.049 23.75 242.73 22.957 244.727 22.793C245.355 22.1641 246.121 21.7676 247.023 21.6035C246.777 20.4824 246.217 19.5664 245.342 18.8555C244.467 18.1172 243.428 17.748 242.225 17.748C241.787 17.748 241.35 17.8027 240.912 17.9121C240.502 18.0215 240.105 18.1855 239.723 18.4043L239.066 16.2305C239.285 15.9297 239.463 15.5879 239.6 15.2051C239.736 14.8223 239.805 14.4258 239.805 14.0156C239.805 12.9766 239.559 12.1016 239.066 11.3906C238.574 10.6523 237.822 10.2832 236.811 10.2832C236.127 10.2832 235.512 10.5293 234.965 11.0215C234.445 11.4863 234.186 12.2246 234.186 13.2363C234.186 13.5918 234.227 13.9883 234.309 14.4258C234.391 14.8359 234.527 15.2871 234.719 15.7793H231.93C231.984 15.4785 232.025 15.2051 232.053 14.959C232.08 14.6855 232.094 14.4395 232.094 14.2207C232.094 13.1543 231.861 12.4707 231.396 12.1699C230.959 11.8418 230.508 11.6777 230.043 11.6777C229.66 11.6777 229.305 11.7188 228.977 11.8008C228.676 11.8555 228.402 11.9375 228.156 12.0469C227.801 11.6094 227.295 11.2266 226.639 10.8984C226.01 10.543 225.299 10.3652 224.506 10.3652C223.357 10.3652 222.373 10.7754 221.553 11.5957C220.76 12.3887 220.363 13.3457 220.363 14.4668C220.363 15.7246 220.828 16.75 221.758 17.543C222.715 18.3086 223.754 18.6914 224.875 18.6914V21.5625C223.426 21.5625 222.1 21.1797 220.896 20.4141C219.721 19.6484 218.818 18.6641 218.189 17.4609C217.588 17.1328 216.918 16.9688 216.18 16.9688C215.605 16.9688 215.031 17.0645 214.457 17.2559C213.91 17.4473 213.404 17.6934 212.939 17.9941C213.896 18.623 214.662 19.4297 215.236 20.4141C215.811 21.3984 216.098 22.4922 216.098 23.6953C216.098 24.9258 215.797 26.1016 215.195 27.2227L211.914 26.8125C212.762 25.9648 213.186 24.9258 213.186 23.6953C213.186 22.4922 212.775 21.4668 211.955 20.6191C211.135 19.7715 210.123 19.3477 208.92 19.3477C207.881 19.3477 206.992 19.7305 206.254 20.4961C205.516 21.2344 205.146 22.123 205.146 23.1621C205.146 23.627 205.242 24.1191 205.434 24.6387C205.078 24.502 204.736 24.4336 204.408 24.4336C203.561 24.4336 202.904 24.7344 202.439 25.3359C202.002 25.9102 201.783 26.7441 201.783 27.8379C201.674 27.8105 201.564 27.7969 201.455 27.7969C201.373 27.7969 201.277 27.7969 201.168 27.7969C200.156 27.7969 199.295 28.1523 198.584 28.8633C197.9 29.5469 197.559 30.3945 197.559 31.4062H193.457C193.457 29.793 193.895 28.3437 194.77 27.0586C195.672 25.7734 196.834 24.8438 198.256 24.2695C198.557 23.5586 198.967 22.9434 199.486 22.4238C200.033 21.877 200.648 21.4258 201.332 21.0703C201.797 19.375 202.727 17.9805 204.121 16.8867C205.543 15.7656 207.17 15.2051 209.002 15.2051C209.303 15.2051 209.521 15.2187 209.658 15.2461C210.424 14.5352 211.34 14.0156 212.406 13.6875C213.5 13.332 214.539 13.1543 215.523 13.1543C215.688 13.1543 215.852 13.1543 216.016 13.1543C216.18 13.1543 216.33 13.168 216.467 13.1953C216.904 11.3906 217.861 9.79102 219.338 8.39648C220.842 6.97461 222.564 6.26367 224.506 6.26367C226.174 6.26367 227.705 6.72852 229.1 7.6582C229.537 7.60352 229.879 7.57617 230.125 7.57617C230.836 7.57617 231.465 7.80859 232.012 8.27344C232.613 7.61719 233.256 7.11133 233.939 6.75586C234.65 6.40039 235.389 6.22266 236.154 6.22266C238.178 6.22266 239.955 6.81055 241.486 7.98633C243.045 9.13477 243.824 10.5977 243.824 12.375C243.824 12.6758 243.811 12.9492 243.783 13.1953C243.783 13.4141 243.756 13.6602 243.701 13.9336C245.615 14.0703 247.229 14.8223 248.541 16.1895C249.854 17.5566 250.688 19.1289 251.043 20.9062C251.727 20.7148 252.479 20.6191 253.299 20.6191C255.568 20.6191 257.414 21.3574 258.836 22.834C260.258 24.2832 261.133 26.0742 261.461 28.207L257.441 29.5605C257.441 28.2207 257.086 27.0859 256.375 26.1562C255.691 25.1992 254.666 24.7207 253.299 24.7207C253.162 24.7207 253.025 24.7344 252.889 24.7617C252.752 24.7617 252.615 24.7754 252.479 24.8027C252.533 24.9668 252.561 25.1445 252.561 25.3359C252.588 25.5 252.602 25.6777 252.602 25.8691C252.602 26.252 252.533 26.6758 252.396 27.1406C252.752 27.9336 252.971 28.8496 253.053 29.8887L250.223 30.3398C250.195 29.9297 250.113 29.4922 249.977 29.0273C249.867 28.5625 249.648 27.9883 249.32 27.3047C249.484 27.0039 249.594 26.7168 249.648 26.4434C249.703 26.1699 249.73 25.9785 249.73 25.8691C249.73 25.3223 249.512 24.9395 249.074 24.7207C248.664 24.502 248.24 24.3926 247.803 24.3926C247.475 24.3926 247.16 24.502 246.859 24.7207C246.586 24.9121 246.408 25.2813 246.326 25.8281C245.861 25.6914 245.506 25.623 245.26 25.623C243.947 25.623 242.826 26.0879 241.896 27.0176C240.994 27.9199 240.543 29.0273 240.543 30.3398C240.543 31.3516 240.857 32.2676 241.486 33.0879L238.779 34.1953ZM239.066 28.3301L236.811 26.0742L239.723 23.3672L241.773 24.5156L239.066 28.3301ZM235.58 27.5918C234.842 27.5918 234.104 27.3867 233.365 26.9766C232.627 26.5391 231.957 25.8281 231.355 24.8438C230.344 24.5977 229.605 24.1465 229.141 23.4902C228.703 22.834 228.484 22.0957 228.484 21.2754C228.484 20.209 228.785 19.1152 229.387 17.9941C229.988 16.873 230.795 15.9434 231.807 15.2051C232.818 14.4395 233.912 14.0566 235.088 14.0566C236.154 14.0566 237.152 14.3984 238.082 15.082C239.039 15.7656 239.818 16.6406 240.42 17.707C241.021 18.7734 241.322 19.8809 241.322 21.0293C241.322 22.7793 240.734 24.3105 239.559 25.623C238.383 26.9355 237.057 27.5918 235.58 27.5918ZM235.785 24.7207C236.469 24.7207 237.057 24.3516 237.549 23.6133C238.068 22.875 238.328 22.0273 238.328 21.0703C238.328 20.1133 238.041 19.2383 237.467 18.4453C236.92 17.625 236.195 17.2148 235.293 17.2148C234.309 17.2148 233.393 17.6523 232.545 18.5273C231.725 19.4023 231.314 20.1953 231.314 20.9062C231.314 21.7539 231.943 22.1777 233.201 22.1777C233.584 23.1074 233.994 23.7637 234.432 24.1465C234.896 24.5293 235.348 24.7207 235.785 24.7207Z" fill="#F84464"/>
<path d="M19.056 86.48C16.656 86.48 14.4 86.048 12.288 85.184C10.208 84.288 8.368 83.04 6.768 81.44C5.2 79.84 3.968 78 3.072 75.92C2.208 73.808 1.776 71.536 1.776 69.104C1.776 66.64 2.224 64.368 3.12 62.288C4.016 60.176 5.264 58.336 6.864 56.768C8.464 55.168 10.336 53.936 12.48 53.072C14.624 52.176 16.944 51.728 19.44 51.728C22.224 51.728 24.784 52.256 27.12 53.312C29.456 54.336 31.392 55.792 32.928 57.68L28.512 62.096C27.456 60.72 26.144 59.664 24.576 58.928C23.008 58.192 21.28 57.824 19.392 57.824C17.248 57.824 15.344 58.304 13.68 59.264C12.048 60.192 10.768 61.504 9.84 63.2C8.912 64.864 8.448 66.816 8.448 69.056C8.448 71.296 8.896 73.28 9.792 75.008C10.72 76.704 11.968 78.032 13.536 78.992C15.136 79.952 16.96 80.432 19.008 80.432C21.12 80.432 22.928 80.048 24.432 79.28C25.936 78.48 27.088 77.328 27.888 75.824C28.688 74.288 29.088 72.416 29.088 70.208L33.36 73.136L18.624 72.992V67.328H35.808V68.24C35.808 72.272 35.088 75.648 33.648 78.368C32.208 81.056 30.224 83.088 27.696 84.464C25.2 85.808 22.32 86.48 19.056 86.48ZM51.2314 86.48C48.7994 86.48 46.6394 85.968 44.7514 84.944C42.8634 83.888 41.3594 82.448 40.2394 80.624C39.1514 78.8 38.6074 76.72 38.6074 74.384C38.6074 72.08 39.1354 70.032 40.1914 68.24C41.2794 66.416 42.7514 64.976 44.6074 63.92C46.4634 62.832 48.5274 62.288 50.7994 62.288C53.0394 62.288 55.0074 62.8 56.7034 63.824C58.4314 64.816 59.7754 66.192 60.7354 67.952C61.7274 69.68 62.2234 71.648 62.2234 73.856C62.2234 74.272 62.1914 74.704 62.1274 75.152C62.0954 75.568 62.0154 76.048 61.8874 76.592L42.3994 76.64V71.936L58.9594 71.888L56.4154 73.856C56.3514 72.48 56.0954 71.328 55.6474 70.4C55.2314 69.472 54.6074 68.768 53.7754 68.288C52.9754 67.776 51.9834 67.52 50.7994 67.52C49.5514 67.52 48.4634 67.808 47.5354 68.384C46.6074 68.928 45.8874 69.712 45.3754 70.736C44.8954 71.728 44.6554 72.912 44.6554 74.288C44.6554 75.696 44.9114 76.928 45.4234 77.984C45.9674 79.008 46.7354 79.808 47.7274 80.384C48.7194 80.928 49.8714 81.2 51.1834 81.2C52.3674 81.2 53.4394 81.008 54.3994 80.624C55.3594 80.208 56.1914 79.6 56.8954 78.8L60.5914 82.496C59.4714 83.808 58.0954 84.8 56.4634 85.472C54.8634 86.144 53.1194 86.48 51.2314 86.48ZM68.9576 86V53.168H75.2456V86H68.9576ZM63.5336 68.336V62.816H80.6696V68.336H63.5336ZM100.877 86.192L91.1809 62.816H97.9969L104.429 80.672H102.125L108.797 62.816H115.661L105.341 86.192H100.877ZM94.4449 95.696L101.501 80.768L105.341 86.192L101.117 95.696H94.4449ZM128.711 86.48C126.375 86.48 124.263 85.952 122.375 84.896C120.519 83.808 119.031 82.352 117.911 80.528C116.823 78.672 116.279 76.608 116.279 74.336C116.279 72.064 116.823 70.032 117.911 68.24C118.999 66.416 120.487 64.976 122.375 63.92C124.263 62.832 126.359 62.288 128.663 62.288C131.031 62.288 133.143 62.832 134.999 63.92C136.887 64.976 138.375 66.416 139.463 68.24C140.551 70.032 141.095 72.064 141.095 74.336C141.095 76.608 140.551 78.672 139.463 80.528C138.375 82.352 136.887 83.808 134.999 84.896C133.143 85.952 131.047 86.48 128.711 86.48ZM128.663 80.624C129.847 80.624 130.887 80.368 131.783 79.856C132.711 79.312 133.415 78.576 133.895 77.648C134.407 76.688 134.663 75.6 134.663 74.384C134.663 73.168 134.407 72.096 133.895 71.168C133.383 70.24 132.679 69.52 131.783 69.008C130.887 68.464 129.847 68.192 128.663 68.192C127.511 68.192 126.487 68.464 125.591 69.008C124.695 69.52 123.991 70.24 123.479 71.168C122.967 72.096 122.711 73.168 122.711 74.384C122.711 75.6 122.967 76.688 123.479 77.648C123.991 78.576 124.695 79.312 125.591 79.856C126.487 80.368 127.511 80.624 128.663 80.624ZM155.031 86.48C152.983 86.48 151.159 86.048 149.559 85.184C147.991 84.32 146.759 83.12 145.863 81.584C144.967 80.048 144.519 78.272 144.519 76.256V62.816H150.855V76.112C150.855 77.072 151.015 77.904 151.335 78.608C151.655 79.28 152.135 79.792 152.775 80.144C153.415 80.496 154.167 80.672 155.031 80.672C156.343 80.672 157.367 80.272 158.103 79.472C158.839 78.672 159.207 77.552 159.207 76.112V62.816H165.495V76.256C165.495 78.304 165.047 80.096 164.151 81.632C163.287 83.168 162.055 84.368 160.455 85.232C158.887 86.064 157.079 86.48 155.031 86.48ZM170.503 86V62.816H176.791V86H170.503ZM176.791 73.184L174.343 71.552C174.631 68.704 175.463 66.464 176.839 64.832C178.215 63.168 180.199 62.336 182.791 62.336C183.911 62.336 184.919 62.528 185.815 62.912C186.711 63.264 187.527 63.856 188.263 64.688L184.327 69.2C183.975 68.816 183.543 68.528 183.031 68.336C182.551 68.144 181.991 68.048 181.351 68.048C180.007 68.048 178.903 68.48 178.039 69.344C177.207 70.176 176.791 71.456 176.791 73.184ZM258.461 86.48C256.125 86.48 254.013 85.952 252.125 84.896C250.269 83.808 248.781 82.352 247.661 80.528C246.573 78.672 246.029 76.608 246.029 74.336C246.029 72.064 246.573 70.032 247.661 68.24C248.749 66.416 250.237 64.976 252.125 63.92C254.013 62.832 256.109 62.288 258.413 62.288C260.781 62.288 262.893 62.832 264.749 63.92C266.637 64.976 268.125 66.416 269.213 68.24C270.301 70.032 270.845 72.064 270.845 74.336C270.845 76.608 270.301 78.672 269.213 80.528C268.125 82.352 266.637 83.808 264.749 84.896C262.893 85.952 260.797 86.48 258.461 86.48ZM258.413 80.624C259.597 80.624 260.637 80.368 261.533 79.856C262.461 79.312 263.165 78.576 263.645 77.648C264.157 76.688 264.413 75.6 264.413 74.384C264.413 73.168 264.157 72.096 263.645 71.168C263.133 70.24 262.429 69.52 261.533 69.008C260.637 68.464 259.597 68.192 258.413 68.192C257.261 68.192 256.237 68.464 255.341 69.008C254.445 69.52 253.741 70.24 253.229 71.168C252.717 72.096 252.461 73.168 252.461 74.384C252.461 75.6 252.717 76.688 253.229 77.648C253.741 78.576 254.445 79.312 255.341 79.856C256.237 80.368 257.261 80.624 258.413 80.624ZM287.757 86.48C286.093 86.48 284.589 86.144 283.245 85.472C281.901 84.768 280.829 83.824 280.029 82.64C279.229 81.456 278.797 80.096 278.733 78.56V70.352C278.797 68.816 279.229 67.456 280.029 66.272C280.861 65.056 281.933 64.096 283.245 63.392C284.589 62.688 286.093 62.336 287.757 62.336C289.901 62.336 291.821 62.864 293.517 63.92C295.213 64.976 296.541 66.416 297.501 68.24C298.493 70.064 298.989 72.128 298.989 74.432C298.989 76.704 298.493 78.752 297.501 80.576C296.541 82.4 295.213 83.84 293.517 84.896C291.821 85.952 289.901 86.48 287.757 86.48ZM274.893 95.696V62.816H281.181V68.912L280.125 74.528L281.133 80.144V95.696H274.893ZM286.653 80.672C287.805 80.672 288.829 80.416 289.725 79.904C290.621 79.36 291.309 78.624 291.789 77.696C292.301 76.736 292.557 75.632 292.557 74.384C292.557 73.168 292.301 72.096 291.789 71.168C291.309 70.208 290.621 69.472 289.725 68.96C288.829 68.416 287.805 68.144 286.653 68.144C285.533 68.144 284.525 68.416 283.629 68.96C282.733 69.472 282.029 70.208 281.517 71.168C281.037 72.096 280.797 73.168 280.797 74.384C280.797 75.632 281.037 76.736 281.517 77.696C282.029 78.624 282.717 79.36 283.581 79.904C284.477 80.416 285.501 80.672 286.653 80.672ZM314.056 86.48C311.688 86.48 309.56 85.952 307.672 84.896C305.784 83.84 304.296 82.4 303.208 80.576C302.12 78.752 301.576 76.704 301.576 74.432C301.576 72.128 302.12 70.064 303.208 68.24C304.296 66.416 305.784 64.976 307.672 63.92C309.592 62.832 311.72 62.288 314.056 62.288C315.88 62.288 317.56 62.624 319.096 63.296C320.632 63.968 321.96 64.928 323.08 66.176L319.048 70.256C318.44 69.584 317.704 69.072 316.84 68.72C316.008 68.368 315.08 68.192 314.056 68.192C312.904 68.192 311.864 68.464 310.936 69.008C310.04 69.52 309.32 70.24 308.776 71.168C308.264 72.064 308.008 73.136 308.008 74.384C308.008 75.6 308.264 76.688 308.776 77.648C309.32 78.576 310.04 79.312 310.936 79.856C311.864 80.368 312.904 80.624 314.056 80.624C315.112 80.624 316.056 80.448 316.888 80.096C317.752 79.712 318.488 79.168 319.096 78.464L323.176 82.544C321.992 83.824 320.632 84.8 319.096 85.472C317.56 86.144 315.88 86.48 314.056 86.48ZM337.118 86.48C334.782 86.48 332.67 85.952 330.782 84.896C328.926 83.808 327.438 82.352 326.318 80.528C325.23 78.672 324.686 76.608 324.686 74.336C324.686 72.064 325.23 70.032 326.318 68.24C327.406 66.416 328.894 64.976 330.782 63.92C332.67 62.832 334.766 62.288 337.07 62.288C339.438 62.288 341.55 62.832 343.406 63.92C345.294 64.976 346.782 66.416 347.87 68.24C348.958 70.032 349.502 72.064 349.502 74.336C349.502 76.608 348.958 78.672 347.87 80.528C346.782 82.352 345.294 83.808 343.406 84.896C341.55 85.952 339.454 86.48 337.118 86.48ZM337.07 80.624C338.254 80.624 339.294 80.368 340.19 79.856C341.118 79.312 341.822 78.576 342.302 77.648C342.814 76.688 343.07 75.6 343.07 74.384C343.07 73.168 342.814 72.096 342.302 71.168C341.79 70.24 341.086 69.52 340.19 69.008C339.294 68.464 338.254 68.192 337.07 68.192C335.918 68.192 334.894 68.464 333.998 69.008C333.102 69.52 332.398 70.24 331.886 71.168C331.374 72.096 331.118 73.168 331.118 74.384C331.118 75.6 331.374 76.688 331.886 77.648C332.398 78.576 333.102 79.312 333.998 79.856C334.894 80.368 335.918 80.624 337.07 80.624ZM353.55 86V62.816H359.838V86H353.55ZM359.838 73.184L357.39 71.552C357.678 68.704 358.51 66.464 359.886 64.832C361.262 63.168 363.246 62.336 365.838 62.336C366.958 62.336 367.966 62.528 368.862 62.912C369.758 63.264 370.574 63.856 371.31 64.688L367.374 69.2C367.022 68.816 366.59 68.528 366.078 68.336C365.598 68.144 365.038 68.048 364.398 68.048C363.054 68.048 361.95 68.48 361.086 69.344C360.254 70.176 359.838 71.456 359.838 73.184ZM389.025 86V72.704C389.025 71.328 388.593 70.208 387.729 69.344C386.865 68.48 385.745 68.048 384.369 68.048C383.473 68.048 382.673 68.24 381.969 68.624C381.265 69.008 380.705 69.552 380.289 70.256C379.905 70.96 379.713 71.776 379.713 72.704L377.265 71.456C377.265 69.632 377.649 68.048 378.417 66.704C379.217 65.328 380.305 64.256 381.681 63.488C383.089 62.72 384.673 62.336 386.433 62.336C388.129 62.336 389.649 62.768 390.993 63.632C392.337 64.464 393.393 65.568 394.161 66.944C394.929 68.288 395.313 69.744 395.313 71.312V86H389.025ZM373.425 86V62.816H379.713V86H373.425Z" fill="white"/>
</svg>
