<svg width="74" height="87" viewBox="0 0 74 87" fill="none" xmlns="http://www.w3.org/2000/svg">
<path d="M37.3203 86.3555L13.5312 76.1836L1.51367 26.3496C1.13086 24.7637 1.28125 23.4375 1.96484 22.3711C2.67578 21.3047 3.75586 20.7715 5.20508 20.7715C6.32617 20.7715 7.36523 21.1133 8.32227 21.7969C9.30664 22.4531 10.1543 23.3008 10.8652 24.3398C11.3027 24.0664 11.7676 23.8613 12.2598 23.7246C12.752 23.5605 13.2578 23.4785 13.7773 23.4785C14.9805 23.4785 16.1426 23.8477 17.2637 24.5859C18.4121 25.3242 19.3965 26.2949 20.2168 27.498C21.0371 26.8965 22.0215 26.5957 23.1699 26.5957C24.5371 26.5957 25.8633 26.9922 27.1484 27.7852C28.4336 28.5508 29.5547 29.5762 30.5117 30.8613C31.9336 28.291 34.2031 27.0059 37.3203 27.0059C40.4375 27.0059 42.707 28.291 44.1289 30.8613C45.0859 29.5762 46.207 28.5508 47.4922 27.7852C48.8047 26.9922 50.1309 26.5957 51.4707 26.5957C52.6191 26.5957 53.6035 26.8965 54.4238 27.498C55.2441 26.2949 56.2285 25.3242 57.377 24.5859C58.5254 23.8477 59.6875 23.4785 60.8633 23.4785C61.4102 23.4785 61.916 23.5605 62.3809 23.7246C62.873 23.8613 63.3379 24.0664 63.7754 24.3398C64.4863 23.3008 65.334 22.4531 66.3184 21.7969C67.3027 21.1133 68.3418 20.7715 69.4355 20.7715C70.8848 20.7715 71.9512 21.3047 72.6348 22.3711C73.3457 23.4375 73.5098 24.7637 73.127 26.3496L61.1094 76.1836L37.3203 86.3555ZM25.0156 76.7168L18.5352 33.5684C18.3164 32.0371 17.8105 30.6562 17.0176 29.4258C16.252 28.1953 15.2266 27.5801 13.9414 27.5801C13.3125 27.5801 12.8203 27.8125 12.4648 28.2773C12.1367 28.7148 12.0273 29.248 12.1367 29.877L19.8066 74.2969L25.0156 76.7168ZM37.2793 81.9258L39.5762 80.9414L41.709 37.916C41.8184 35.7285 41.4902 34.0469 40.7246 32.8711C39.9863 31.6953 38.8516 31.1074 37.3203 31.1074C35.8164 31.1074 34.6816 31.6953 33.916 32.8711C33.1504 34.0469 32.8223 35.7285 32.9316 37.916L35.0645 80.9414L37.2793 81.9258ZM49.625 76.7168L54.834 74.2969L62.5039 29.877C62.6133 29.248 62.4902 28.7148 62.1348 28.2773C61.8066 27.8125 61.3281 27.5801 60.6992 27.5801C59.4141 27.5801 58.375 28.1953 57.582 29.4258C56.8164 30.6562 56.3242 32.0371 56.1055 33.5684L49.625 76.7168ZM22.9648 29.6309C21.7891 29.084 20.9004 28.332 20.2988 27.375C19.6973 26.3906 19.3965 25.3926 19.3965 24.3809C19.3965 23.3691 19.6973 22.4121 20.2988 21.5098C20.9277 20.6074 21.8711 19.9375 23.1289 19.5C23.9492 18.0508 25.2207 17.3262 26.9434 17.3262C27.873 17.3262 28.8164 17.5996 29.7734 18.1465C30.6758 17.7363 31.6328 17.5312 32.6445 17.5312C34.2852 17.5312 35.6387 18.0781 36.7051 19.1719C37.7988 20.2656 38.3457 21.5508 38.3457 23.0273C38.3457 24.75 37.5801 26.3633 36.0488 27.8672L36.418 26.3496C36.5273 26.5684 36.6094 26.8691 36.6641 27.252C36.7461 27.6074 36.8008 27.9766 36.8281 28.3594L34.0391 28.4824C33.9844 27.9629 33.875 27.5391 33.7109 27.2109C33.5469 26.8555 33.4102 26.6094 33.3008 26.4727C34.7773 25.2969 35.5156 24.1348 35.5156 22.9863C35.5156 22.248 35.2422 21.6465 34.6953 21.1816C34.1484 20.7168 33.4648 20.4844 32.6445 20.4844C32.1797 20.4844 31.6738 20.5801 31.127 20.7715C30.6074 20.9355 30.0742 21.209 29.5273 21.5918C29.2539 21.0996 28.9395 20.7578 28.584 20.5664C28.2285 20.3477 27.8594 20.2383 27.4766 20.2383C26.957 20.2383 26.4785 20.4023 26.041 20.7305C25.6309 21.0586 25.3984 21.4551 25.3438 21.9199C24.3047 22.0293 23.5254 22.3437 23.0059 22.8633C22.5137 23.3828 22.2676 23.957 22.2676 24.5859C22.2676 25.1055 22.4453 25.6113 22.8008 26.1035C23.1836 26.5684 23.7441 26.9375 24.4824 27.2109L22.9648 29.6309ZM37.9355 23.8477L36.0488 21.0176C36.6504 20.0605 37.457 19.3086 38.4688 18.7617C39.4805 18.1875 40.5879 17.9004 41.791 17.9004C42.2012 17.9004 42.5156 17.9277 42.7344 17.9824L43.0215 20.9766C42.6113 20.8398 42.2012 20.7715 41.791 20.7715C40.8613 20.7715 40.041 21.0723 39.3301 21.6738C38.6191 22.248 38.1543 22.9727 37.9355 23.8477ZM32.0293 19.418C31.4551 18.543 31.168 17.5996 31.168 16.5879C31.168 15.166 31.6602 13.9629 32.6445 12.9785C33.6562 11.9941 34.873 11.502 36.2949 11.502C37.7715 11.502 39.0293 12.0625 40.0684 13.1836L38.1816 15.8086C37.8535 14.9609 37.2246 14.5371 36.2949 14.5371C35.6934 14.5371 35.1875 14.7422 34.7773 15.1523C34.3945 15.5625 34.2031 16.041 34.2031 16.5879C34.2031 17.4082 34.5312 18.0098 35.1875 18.3926L32.0293 19.418ZM47.7793 28.1953C47.4238 27.6484 47.1504 27.0469 46.959 26.3906C46.7676 25.7344 46.6719 25.0508 46.6719 24.3398C46.6719 22.3164 47.3418 20.5938 48.6816 19.1719C50.0488 17.75 51.7305 16.957 53.7266 16.793C54.3555 16.1641 55.1211 15.7676 56.0234 15.6035C55.7773 14.4824 55.2168 13.5664 54.3418 12.8555C53.4668 12.1172 52.4277 11.748 51.2246 11.748C50.7871 11.748 50.3496 11.8027 49.9121 11.9121C49.502 12.0215 49.1055 12.1855 48.7227 12.4043L48.0664 10.2305C48.2852 9.92969 48.4629 9.58789 48.5996 9.20508C48.7363 8.82227 48.8047 8.42578 48.8047 8.01562C48.8047 6.97656 48.5586 6.10156 48.0664 5.39062C47.5742 4.65234 46.8223 4.2832 45.8105 4.2832C45.127 4.2832 44.5117 4.5293 43.9648 5.02148C43.4453 5.48633 43.1855 6.22461 43.1855 7.23633C43.1855 7.5918 43.2266 7.98828 43.3086 8.42578C43.3906 8.83594 43.5273 9.28711 43.7188 9.7793H40.9297C40.9844 9.47852 41.0254 9.20508 41.0527 8.95898C41.0801 8.68555 41.0938 8.43945 41.0938 8.2207C41.0938 7.1543 40.8613 6.4707 40.3965 6.16992C39.959 5.8418 39.5078 5.67773 39.043 5.67773C38.6602 5.67773 38.3047 5.71875 37.9766 5.80078C37.6758 5.85547 37.4023 5.9375 37.1562 6.04688C36.8008 5.60937 36.2949 5.22656 35.6387 4.89844C35.0098 4.54297 34.2988 4.36523 33.5059 4.36523C32.3574 4.36523 31.373 4.77539 30.5527 5.5957C29.7598 6.38867 29.3633 7.3457 29.3633 8.4668C29.3633 9.72461 29.8281 10.75 30.7578 11.543C31.7148 12.3086 32.7539 12.6914 33.875 12.6914V15.5625C32.4258 15.5625 31.0996 15.1797 29.8965 14.4141C28.7207 13.6484 27.8184 12.6641 27.1895 11.4609C26.5879 11.1328 25.918 10.9688 25.1797 10.9688C24.6055 10.9688 24.0312 11.0645 23.457 11.2559C22.9102 11.4473 22.4043 11.6934 21.9395 11.9941C22.8965 12.623 23.6621 13.4297 24.2363 14.4141C24.8105 15.3984 25.0977 16.4922 25.0977 17.6953C25.0977 18.9258 24.7969 20.1016 24.1953 21.2227L20.9141 20.8125C21.7617 19.9648 22.1855 18.9258 22.1855 17.6953C22.1855 16.4922 21.7754 15.4668 20.9551 14.6191C20.1348 13.7715 19.123 13.3477 17.9199 13.3477C16.8809 13.3477 15.9922 13.7305 15.2539 14.4961C14.5156 15.2344 14.1465 16.123 14.1465 17.1621C14.1465 17.627 14.2422 18.1191 14.4336 18.6387C14.0781 18.502 13.7363 18.4336 13.4082 18.4336C12.5605 18.4336 11.9043 18.7344 11.4395 19.3359C11.002 19.9102 10.7832 20.7441 10.7832 21.8379C10.6738 21.8105 10.5645 21.7969 10.4551 21.7969C10.373 21.7969 10.2773 21.7969 10.168 21.7969C9.15625 21.7969 8.29492 22.1523 7.58398 22.8633C6.90039 23.5469 6.55859 24.3945 6.55859 25.4062H2.45703C2.45703 23.793 2.89453 22.3437 3.76953 21.0586C4.67188 19.7734 5.83398 18.8438 7.25586 18.2695C7.55664 17.5586 7.9668 16.9434 8.48633 16.4238C9.0332 15.877 9.64844 15.4258 10.332 15.0703C10.7969 13.375 11.7266 11.9805 13.1211 10.8867C14.543 9.76563 16.1699 9.20508 18.002 9.20508C18.3027 9.20508 18.5215 9.21875 18.6582 9.24609C19.4238 8.53516 20.3398 8.01562 21.4062 7.6875C22.5 7.33203 23.5391 7.1543 24.5234 7.1543C24.6875 7.1543 24.8516 7.1543 25.0156 7.1543C25.1797 7.1543 25.3301 7.16797 25.4668 7.19531C25.9043 5.39062 26.8613 3.79102 28.3379 2.39648C29.8418 0.974609 31.5645 0.263672 33.5059 0.263672C35.1738 0.263672 36.7051 0.728516 38.0996 1.6582C38.5371 1.60352 38.8789 1.57617 39.125 1.57617C39.8359 1.57617 40.4648 1.80859 41.0117 2.27344C41.6133 1.61719 42.2559 1.11133 42.9395 0.755859C43.6504 0.400391 44.3887 0.222656 45.1543 0.222656C47.1777 0.222656 48.9551 0.810547 50.4863 1.98633C52.0449 3.13477 52.8242 4.59766 52.8242 6.375C52.8242 6.67578 52.8105 6.94922 52.7832 7.19531C52.7832 7.41406 52.7559 7.66016 52.7012 7.93359C54.6152 8.07031 56.2285 8.82227 57.541 10.1895C58.8535 11.5566 59.6875 13.1289 60.043 14.9062C60.7266 14.7148 61.4785 14.6191 62.2988 14.6191C64.5684 14.6191 66.4141 15.3574 67.8359 16.834C69.2578 18.2832 70.1328 20.0742 70.4609 22.207L66.4414 23.5605C66.4414 22.2207 66.0859 21.0859 65.375 20.1562C64.6914 19.1992 63.666 18.7207 62.2988 18.7207C62.1621 18.7207 62.0254 18.7344 61.8887 18.7617C61.752 18.7617 61.6152 18.7754 61.4785 18.8027C61.5332 18.9668 61.5605 19.1445 61.5605 19.3359C61.5879 19.5 61.6016 19.6777 61.6016 19.8691C61.6016 20.252 61.5332 20.6758 61.3965 21.1406C61.752 21.9336 61.9707 22.8496 62.0527 23.8887L59.2227 24.3398C59.1953 23.9297 59.1133 23.4922 58.9766 23.0273C58.8672 22.5625 58.6484 21.9883 58.3203 21.3047C58.4844 21.0039 58.5938 20.7168 58.6484 20.4434C58.7031 20.1699 58.7305 19.9785 58.7305 19.8691C58.7305 19.3223 58.5117 18.9395 58.0742 18.7207C57.6641 18.502 57.2402 18.3926 56.8027 18.3926C56.4746 18.3926 56.1602 18.502 55.8594 18.7207C55.5859 18.9121 55.4082 19.2813 55.3262 19.8281C54.8613 19.6914 54.5059 19.623 54.2598 19.623C52.9473 19.623 51.8262 20.0879 50.8965 21.0176C49.9941 21.9199 49.543 23.0273 49.543 24.3398C49.543 25.3516 49.8574 26.2676 50.4863 27.0879L47.7793 28.1953ZM48.0664 22.3301L45.8105 20.0742L48.7227 17.3672L50.7734 18.5156L48.0664 22.3301ZM44.5801 21.5918C43.8418 21.5918 43.1035 21.3867 42.3652 20.9766C41.627 20.5391 40.957 19.8281 40.3555 18.8438C39.3438 18.5977 38.6055 18.1465 38.1406 17.4902C37.7031 16.834 37.4844 16.0957 37.4844 15.2754C37.4844 14.209 37.7852 13.1152 38.3867 11.9941C38.9883 10.873 39.7949 9.94336 40.8066 9.20508C41.8184 8.43945 42.9121 8.05664 44.0879 8.05664C45.1543 8.05664 46.1523 8.39844 47.082 9.08203C48.0391 9.76563 48.8184 10.6406 49.4199 11.707C50.0215 12.7734 50.3223 13.8809 50.3223 15.0293C50.3223 16.7793 49.7344 18.3105 48.5586 19.623C47.3828 20.9355 46.0566 21.5918 44.5801 21.5918ZM44.7852 18.7207C45.4688 18.7207 46.0566 18.3516 46.5488 17.6133C47.0684 16.875 47.3281 16.0273 47.3281 15.0703C47.3281 14.1133 47.041 13.2383 46.4668 12.4453C45.9199 11.625 45.1953 11.2148 44.293 11.2148C43.3086 11.2148 42.3926 11.6523 41.5449 12.5273C40.7246 13.4023 40.3145 14.1953 40.3145 14.9062C40.3145 15.7539 40.9434 16.1777 42.2012 16.1777C42.584 17.1074 42.9941 17.7637 43.4316 18.1465C43.8965 18.5293 44.3477 18.7207 44.7852 18.7207Z" fill="#F84464"/>
</svg>
